<?xml version="1.0" encoding="utf-8"?>
<!-- Generator: Adobe Illustrator 24.0.1, SVG Export Plug-In . SVG Version: 6.00 Build 0)  -->
<svg version="1.1" id="Warstwa_1" xmlns="http://www.w3.org/2000/svg" xmlns:xlink="http://www.w3.org/1999/xlink" x="0px" y="0px"
	 viewBox="0 0 1169 154" style="enable-background:new 0 0 1169 154;" xml:space="preserve">
<style type="text/css">
	.st0{fill:#FEFEFE;}
</style>
<polygon class="st0" points="0,0 21,16 51,37 72,49 90,56 114,65 132,69 142,70 160,72 175,72 190,72 215,69 253,63 277,59 305,55 
	324,52 332,51 353,51 370,52 386,55 399,57 414,60 436,67 450,72 469,78 487,83 504,87 520,91 531,93 544,93 559,91 578,87 598,83 
	616,78 637,73 664,65 680,61 696,58 714,55 731,53 751,52 781,52 806,54 830,57 857,60 884,64 909,68 945,71 963,71 996,71 1016,69 
	1041,63 1067,54 1104,37 1129,23 1158,5 1169,-2 1169,154 0,154 "/>
</svg>
